<svg xmlns="http://www.w3.org/2000/svg" xmlns:xlink="http://www.w3.org/1999/xlink" width="237.917" height="97.778" viewBox="0 0 237.917 97.778"><defs><style>.a{fill:none;}.b{clip-path:url(#a);}.c{clip-path:url(#b);}.d{fill:#fff;}.e{clip-path:url(#c);}.f{clip-path:url(#e);}.g{clip-path:url(#g);}.h{clip-path:url(#i);}.i{clip-path:url(#j);}.j{clip-path:url(#l);}.k{clip-path:url(#n);}.l{clip-path:url(#p);}.m{clip-path:url(#q);}.n{clip-path:url(#s);}.o{clip-path:url(#u);}.p{clip-path:url(#w);}.q{clip-path:url(#y);}.r{clip-path:url(#aa);}</style><clipPath id="a"><path class="a" d="M100.833-44.722v9.444a4.4,4.4,0,0,1-1.25,3.194,5.233,5.233,0,0,1-3.333,1.389h-.556a4.962,4.962,0,0,1-3.611-1.25,4.223,4.223,0,0,1-1.389-3.472V-45H92.5v9.444a3.267,3.267,0,0,0,.833,2.361,3.267,3.267,0,0,0,2.361.833,3.054,3.054,0,0,0,2.361-.833,3.267,3.267,0,0,0,.833-2.361V-45h1.944v.278Z"/></clipPath><clipPath id="b"><path class="a" d="M-250,2303H1190V-143H-250Z"/></clipPath><clipPath id="c"><path class="a" d="M109.444-39.444l3.333-5.417H115l-4.444,6.944,4.583,7.083h-2.222l-3.472-5.417-3.472,5.417H103.75l4.583-7.083-4.444-6.944h2.222Z"/></clipPath><clipPath id="e"><path class="a" d="M122.917-34.583a2.792,2.792,0,0,1,.555-1.806,9.638,9.638,0,0,1,2.083-1.944c-.556-.694-.972-1.389-1.25-1.806a2.5,2.5,0,0,1-.278-1.389,2.972,2.972,0,0,1,.972-2.5,3.878,3.878,0,0,1,2.5-.833,3.267,3.267,0,0,1,2.361.833,2.5,2.5,0,0,1,.972,2.083,2.8,2.8,0,0,1-.417,1.528,7.815,7.815,0,0,1-1.528,1.528l-.972.694,3.055,3.75a6.322,6.322,0,0,0,.695-2.778h1.667a6.075,6.075,0,0,1-1.25,4.028l1.945,2.361h-2.083l-.972-1.111a4.8,4.8,0,0,1-1.667.972,4.727,4.727,0,0,1-1.945.278,5.068,5.068,0,0,1-3.333-1.111A3.446,3.446,0,0,1,122.917-34.583Zm4.444,2.5A4.063,4.063,0,0,0,130-33.194l-3.472-4.028-.278.278a3.359,3.359,0,0,0-1.667,2.5,2.64,2.64,0,0,0,.695,1.806A3.1,3.1,0,0,0,127.361-32.083Zm-1.528-9.583a4.937,4.937,0,0,0,1.111,2.361l1.111-.833a2.359,2.359,0,0,0,.833-.833,2.007,2.007,0,0,0,.278-.972,1.577,1.577,0,0,0-.417-1.111,1.7,1.7,0,0,0-1.25-.417,1.354,1.354,0,0,0-1.25.556A1.939,1.939,0,0,0,125.833-41.667Z"/></clipPath><clipPath id="g"><path class="a" d="M151.944-44.722v9.444a4.4,4.4,0,0,1-1.25,3.194,5.233,5.233,0,0,1-3.333,1.389h-.555a4.963,4.963,0,0,1-3.611-1.25,4.694,4.694,0,0,1-1.389-3.472V-45h1.805v9.444a3.267,3.267,0,0,0,.833,2.361,3.267,3.267,0,0,0,2.361.833,3.054,3.054,0,0,0,2.361-.833A3.267,3.267,0,0,0,150-35.556V-45h1.944v.278Z"/></clipPath><clipPath id="i"><path class="a" d="M156.25-30.833h1.806V-44.861H156.25Z"/></clipPath><clipPath id="j"><path class="a" d="M167.639-30.833V-44.861h3.889a6.087,6.087,0,0,1,3.194.833,5.246,5.246,0,0,1,2.222,2.361,6.765,6.765,0,0,1,.833,3.472v.833a8.576,8.576,0,0,1-.695,3.472,4.915,4.915,0,0,1-2.222,2.222,8.421,8.421,0,0,1-3.333.833Zm1.944-12.361v10.972h1.945a4.117,4.117,0,0,0,3.333-1.389,5.319,5.319,0,0,0,1.25-3.75v-.833A6.321,6.321,0,0,0,175-41.944a4.065,4.065,0,0,0-3.194-1.389h-2.222v.139Z"/></clipPath><clipPath id="l"><path class="a" d="M189.583-37.222h-6.111v5h7.083v1.528h-8.889V-44.722h8.75v1.528h-6.945v4.444h6.111v1.528Z"/></clipPath><clipPath id="n"><path class="a" d="M198.056-36.944a8.089,8.089,0,0,1-3.472-1.667,3.478,3.478,0,0,1-1.111-2.5,3.416,3.416,0,0,1,1.389-2.778A4.981,4.981,0,0,1,198.333-45a4.756,4.756,0,0,1,2.5.556,4.836,4.836,0,0,1,1.806,1.528,3.919,3.919,0,0,1,.555,2.083h-1.805a2.331,2.331,0,0,0-.833-1.944,3.534,3.534,0,0,0-2.222-.694,2.883,2.883,0,0,0-2.083.556,1.869,1.869,0,0,0-.694,1.667,1.709,1.709,0,0,0,.694,1.389,7.12,7.12,0,0,0,2.5,1.111,14.26,14.26,0,0,1,2.778,1.111,4.954,4.954,0,0,1,1.528,1.389,3.846,3.846,0,0,1,.417,1.806,3.242,3.242,0,0,1-1.389,2.778,5.587,5.587,0,0,1-3.611.972,5.637,5.637,0,0,1-2.639-.556,4.364,4.364,0,0,1-1.944-1.528A4.2,4.2,0,0,1,193.194-35H195a2.1,2.1,0,0,0,.972,1.944,3.574,3.574,0,0,0,2.5.694,3.524,3.524,0,0,0,2.222-.556,1.98,1.98,0,0,0,.833-1.667,1.792,1.792,0,0,0-.695-1.528A11.255,11.255,0,0,0,198.056-36.944Z"/></clipPath><clipPath id="p"><path class="a" d="M206.944-30.833h1.806V-44.861h-1.806Z"/></clipPath><clipPath id="q"><path class="a" d="M223.472-32.639a3.592,3.592,0,0,1-1.944,1.528,9.08,9.08,0,0,1-2.917.556,5.947,5.947,0,0,1-3.055-.833,6.429,6.429,0,0,1-2.083-2.222,8.578,8.578,0,0,1-.694-3.472v-1.25a7.27,7.27,0,0,1,1.528-4.861A5.329,5.329,0,0,1,218.472-45a5.2,5.2,0,0,1,3.472,1.111,5.442,5.442,0,0,1,1.667,3.194h-1.805a3.017,3.017,0,0,0-3.333-2.778,3.143,3.143,0,0,0-2.778,1.25,5.761,5.761,0,0,0-.972,3.75v1.111a6.321,6.321,0,0,0,1.111,3.75,3.324,3.324,0,0,0,2.917,1.389,7.038,7.038,0,0,0,1.806-.278,2.023,2.023,0,0,0,1.25-.833v-3.194h-3.195v-1.528h5.139v5.417Z"/></clipPath><clipPath id="s"><path class="a" d="M238.333-30.833h-1.805l-7.083-10.833v10.833h-1.805V-44.861h1.805l7.083,10.833V-44.861h1.805Z"/></clipPath><clipPath id="u"><path class="a" d="M53.333-98.889,32.222-59.722,37.5-50,63.889-98.889Z"/></clipPath><clipPath id="w"><path class="a" d="M.417-1.111H11.111L32.222-40.278,26.806-50Z"/></clipPath><clipPath id="y"><path class="a" d="M61.389-74.444,43.056-40.556l5.278,9.722L71.944-74.444Z"/></clipPath><clipPath id="aa"><path class="a" d="M238.333-73.194H227.222v1.528h4.583v12.778h1.944V-71.667h4.583v-1.528Zm-14.305,7.222H218.75v1.528h3.333v3.194a2.881,2.881,0,0,1-1.389.833,7.036,7.036,0,0,1-1.805.278,3.749,3.749,0,0,1-3.056-1.389,6.465,6.465,0,0,1-1.111-3.889v-1.25a6.464,6.464,0,0,1,.972-3.889,3.692,3.692,0,0,1,2.917-1.389,3.034,3.034,0,0,1,3.333,2.917h1.945a4.273,4.273,0,0,0-1.667-3.194,5.122,5.122,0,0,0-3.611-1.111,5.376,5.376,0,0,0-4.305,1.806,7.945,7.945,0,0,0-1.528,5v1.25a6.766,6.766,0,0,0,.833,3.472,6.914,6.914,0,0,0,2.083,2.361,5.948,5.948,0,0,0,3.056.833,7.066,7.066,0,0,0,3.056-.556,4.541,4.541,0,0,0,2.083-1.528l.139-5.278Zm-16.806.556a7.63,7.63,0,0,1-.972,3.889,3.625,3.625,0,0,1-2.778,1.389,3.323,3.323,0,0,1-2.917-1.389,6.465,6.465,0,0,1-1.111-3.889v-1.25a5.748,5.748,0,0,1,1.111-3.75,3.242,3.242,0,0,1,2.778-1.389,3.324,3.324,0,0,1,2.917,1.389,6.464,6.464,0,0,1,.972,3.889Zm1.806-1.111a10.6,10.6,0,0,0-.695-3.75,4.361,4.361,0,0,0-2.083-2.361,5.6,5.6,0,0,0-3.056-.833,5.947,5.947,0,0,0-3.055.833,6.29,6.29,0,0,0-2.083,2.5,7.64,7.64,0,0,0-.695,3.611v.972a9.835,9.835,0,0,0,.695,3.611,4.9,4.9,0,0,0,2.083,2.361,5.6,5.6,0,0,0,3.055.833,5.6,5.6,0,0,0,3.056-.833,6.913,6.913,0,0,0,2.083-2.361,10.033,10.033,0,0,0,.695-3.75Zm-24.306-6.667h-2.083l5.278,14.306h1.667l5.278-14.306h-2.083l-4.167,11.806Zm-10.278,6.111h-6.25v-4.583h7.083v-1.528H166.25v14.306h9.167v-1.528h-7.222v-5.139h6.25v-1.528Zm-13.055-6.111h-1.945v11.111l-7.222-11.111h-1.944v14.306h1.944V-70l7.222,11.111h1.945Zm-15.833,0h-1.945v11.111l-7.222-11.111h-1.945v14.306h1.945V-70l7.222,11.111h1.945Zm-17.361,7.778a7.63,7.63,0,0,1-.972,3.889,3.625,3.625,0,0,1-2.778,1.389,3.323,3.323,0,0,1-2.917-1.389,6.465,6.465,0,0,1-1.111-3.889v-1.25a5.748,5.748,0,0,1,1.111-3.75,3.242,3.242,0,0,1,2.778-1.389,3.323,3.323,0,0,1,2.917,1.389,6.464,6.464,0,0,1,.972,3.889Zm1.945-1.111a10.6,10.6,0,0,0-.695-3.75,4.361,4.361,0,0,0-2.083-2.361,5.6,5.6,0,0,0-3.055-.833,5.947,5.947,0,0,0-3.056.833,6.29,6.29,0,0,0-2.083,2.5,9.835,9.835,0,0,0-.695,3.611v.972a9.835,9.835,0,0,0,.695,3.611,4.9,4.9,0,0,0,2.083,2.361,5.6,5.6,0,0,0,3.056.833,5.6,5.6,0,0,0,3.055-.833,6.913,6.913,0,0,0,2.083-2.361,10.033,10.033,0,0,0,.695-3.75Zm-24.445-6.667h-2.083l5.278,14.306h1.667l5.278-14.306h-1.944l-4.167,11.806Zm-14.583,0H88.889l5,9.028v5.417h1.944v-5.417l5-9.028H98.611l-3.75,7.222Z"/></clipPath></defs><g transform="translate(-0.417 98.889)"><g class="b"><g class="c"><path class="d" d="M85.694-50h20.139v24.306H85.694Z"/></g></g><g class="e"><g class="c"><path class="d" d="M98.75-49.861h21.389v24.028H98.75Z"/></g></g><g class="f"><g class="c"><path class="d" d="M117.917-49.861h21.111v24.167H117.917Z"/></g></g><g class="g"><g class="c"><path class="d" d="M136.806-50h20.139v24.306H136.806Z"/></g></g><g class="h"><path class="d" d="M151.25-49.861h11.806v24.028H151.25Z"/></g><g class="i"><g class="c"><path class="d" d="M162.639-49.861h20.139v24.028H162.639Z"/></g></g><g class="j"><g class="c"><path class="d" d="M176.667-49.722h18.889v24.028H176.667Z"/></g></g><g class="k"><g class="c"><path class="d" d="M188.194-50h20.278v24.306H188.194Z"/></g></g><g class="l"><path class="d" d="M201.944-49.861H213.75v24.028H201.944Z"/></g><g class="m"><g class="c"><path class="d" d="M207.778-50H228.75v24.444H207.778Z"/></g></g><g class="n"><g class="c"><path class="d" d="M222.639-49.861h20.694v24.028H222.639Z"/></g></g><g class="o"><g class="c"><path class="d" d="M27.222-103.889H68.889V-45H27.222Z"/></g></g><g class="p"><g class="c"><path class="d" d="M-4.583-55H37.222V3.889H-4.583Z"/></g></g><g class="q"><g class="c"><path class="d" d="M38.056-79.444H76.944v53.611H38.056Z"/></g></g><g class="r"><g class="c"><path class="d" d="M83.889-78.472H243.333v24.861H83.889Z"/></g></g></g></svg>